<?xml version="1.0" encoding="UTF-8"?>
<!DOCTYPE svg PUBLIC "-//W3C//DTD SVG 1.1//EN" "http://www.w3.org/Graphics/SVG/1.1/DTD/svg11.dtd">
<!-- Creator: CorelDRAW -->
<svg xmlns="http://www.w3.org/2000/svg" xml:space="preserve" width="184.697mm" height="145.022mm" version="1.1" style="shape-rendering:geometricPrecision; text-rendering:geometricPrecision; image-rendering:optimizeQuality; fill-rule:evenodd; clip-rule:evenodd"
viewBox="0 0 627.37 492.61"
 xmlns:xlink="http://www.w3.org/1999/xlink"
 xmlns:xodm="http://www.corel.com/coreldraw/odm/2003">
 <defs>
  <style type="text/css">
   <![CDATA[
    .fil0 {fill:gray}
   ]]>
  </style>
 </defs>
 <g id="Capa_x0020_1">
  <metadata id="CorelCorpID_0Corel-Layer"/>
  <path class="fil0" d="M53.17 282.39c-6.42,-0.06 -11.48,-1.07 -16.34,-3.05 -2.22,-0.91 -5.64,-1.95 -4.99,-4.39 0.61,-2.24 4.06,-1.2 6.35,-0.96 7.54,0.81 15.03,1.08 22.37,-1.44 5.97,-2.05 11.95,-4.02 17.98,-5.92 4.56,-1.44 9.26,-2.39 14,-3.1 3.32,-0.49 6.48,0.06 9.63,1.04 0.69,0.22 1.43,0.56 1.49,1.35 0.1,1.11 -0.99,1.33 -1.67,1.41 -11.35,1.34 -21.15,7.07 -31.61,10.98 -5.92,2.23 -11.92,4.21 -17.23,4.09zm448.99 18.88l0 0c3.97,-1.45 7.74,-3.39 11.31,-5.71 3.85,-2.5 7.02,-5.63 8.56,-10.07 0.79,-2.26 1.44,-5.16 -0.7,-6.5 -1.95,-1.23 -3.74,1.15 -5.3,2.54 -0.08,0.08 -0.14,0.15 -0.2,0.23 -4.27,5.92 -10.63,8.72 -17.04,11.46 -1.39,0.59 -1.91,0.44 -2.1,-1.19 -0.97,-8.1 -4.05,-15.81 -4.64,-24 -0.19,-2.44 -1.61,-4 -4.09,-4.19 -2.5,-0.19 -4.26,1.2 -4.61,3.56 -0.48,3.19 -2.51,4.96 -4.85,6.69 -4.26,3.16 -9.1,4.59 -14.18,5.4 -0.52,0.11 -1.11,0.2 -1.79,0.26 -0.54,0.07 -1.04,0.11 -1.49,0.12 -9.58,0.62 -13.45,-1.49 -13.45,-1.49 -2.91,-1.01 -5.62,-2.42 -7.96,-4.44l0 -0.01c-1.86,-1.61 -1.61,-3.1 0.59,-4.11 2.11,-0.97 5.81,0.7 8.08,3.04l0 0c0,0 2.61,2.67 5.79,1.59 3.13,-1.07 3.4,-2.94 3.4,-3 -2.52,-5.41 -8.6,-9.53 -15.24,-10.18 -4.36,-0.43 -8.09,1.38 -12.11,2.44 -9.56,2.51 -16.55,9.79 -18,19.38 -0.3,1.99 -0.97,3.96 -1.74,5.83 -2.37,5.73 -5.98,6.33 -10.16,1.77 -0.48,-0.52 -0.94,-1.07 -1.36,-1.65 -3.83,-5.35 -5.85,-11.33 -6.5,-17.89 -0.2,-2.08 0.4,-2.31 2.2,-2.42 3.77,-0.21 7.53,-0.64 11.26,-1.15 1.98,-0.26 4.25,-1.07 4.16,-3.3 -0.1,-2.28 -2.53,-2.67 -4.46,-2.89 -2.43,-0.29 -4.89,-0.4 -7.33,-0.52 -1.73,-0.08 -3.69,0.49 -5.15,-0.14 -1.93,-0.83 -0.27,-3.06 -0.76,-4.67 -0.67,-2.19 -1.7,-3.72 -4.01,-4.01 -2.49,-0.31 -4.08,1.04 -4.92,3.26 -0.38,1.02 -0.57,2.19 -0.56,3.29 0.04,2.09 -0.76,2.85 -2.9,2.81 -4.17,-0.08 -8.37,0 -12.55,0.21 -3.05,0.15 -6.14,0.12 -9.11,0.97 -1.3,0.37 -2.19,1.2 -2.22,2.58 -0.02,1.48 1.06,2.18 2.32,2.47 1.29,0.3 2.62,0.43 3.93,0.57 5.68,0.6 11.4,0.75 17.12,0.75 0.92,0 2.62,-0.62 2.11,1.47 -2.29,9.36 -5.74,18.15 -13.41,24.55 -4.68,3.89 -10.68,3.41 -14.93,-0.95 -2.12,-2.16 -3.34,-4.83 -4.05,-7.77 -1.03,-4.23 -0.55,-8.54 -0.56,-12.81 -0.01,-2.79 -0.66,-5.24 -3.72,-5.88 -3.11,-0.66 -4.64,1.35 -5.66,3.96 -1.35,3.47 -3.23,6.58 -5.91,9.21 -2.76,2.71 -5.98,3 -9.33,1.66 -3.38,-1.36 -6.02,-3.49 -5.94,-7.65 0.02,-1.23 -0.16,-2.44 -0.67,-3.58 -0.92,-2.09 -2.49,-3.26 -4.82,-2.92 -2.18,0.32 -3.4,1.83 -3.73,3.92 -0.29,1.91 -0.26,3.86 0.33,5.76 0.39,1.29 0.58,2.6 0.25,3.93 -2.01,8.14 -6.46,14.24 -14.6,17.17 -5.59,2.01 -12.83,-2.12 -13.66,-8.02 -1.15,-5.47 -0.97,-10.2 1.18,-14.79 0.39,-0.85 1,-1.61 2.08,-1.49 1.07,0.1 1.9,0.63 2.34,1.7l0.01 0c0.78,1.88 0.6,3.77 0.08,5.67 -0.84,2.95 -4.8,7.01 -0.2,9.13 1.94,0.89 4.95,-0.01 5.9,-1.92 2.66,-5.33 3.69,-10.82 1.11,-16.49 -1.73,-3.78 -4.86,-5.63 -8.95,-5.97 -4.07,-0.33 -7.19,1.32 -9.21,4.81 -3.8,6.55 -4.99,13.55 -2.96,20.93 1.07,3.96 0.68,4.47 -3.52,3.88 -2.28,-0.31 -4.35,-1.2 -6.07,-2.7 -3.68,-3.21 -6.04,-7.24 -6.33,-12.16 -0.21,-3.56 0.02,-7.14 0.13,-10.7 0.08,-2.58 -0.45,-4.76 -3.44,-5.24 -2.48,-0.39 -4.33,1.16 -4.98,4.3 -0.58,2.89 -0.98,5.84 -0.86,8.82 0.28,6.01 -1.71,11.45 -4.27,16.71 -1.83,3.74 -4.52,4.39 -7.99,1.98 -3.86,-2.69 -6.06,-6.54 -7.21,-11.04 -1.51,-5.88 -1.66,-11.89 -1.53,-17.92 0.05,-2.01 0.15,-4.48 -2.54,-4.89 -2.66,-0.39 -3.66,1.7 -4.24,3.9 -1.35,5.18 -2.1,10.41 -1.2,15.75 0.57,3.33 0.02,6.49 -0.91,9.65 -0.63,2.12 -1.97,3.24 -4.17,3.4 -2.23,0.17 -3.02,-1.44 -3.69,-3.06 -1.66,-4.03 -2.16,-8.25 -1.99,-12.59 0.2,-4.59 0.15,-9.16 -1.51,-13.59 -4.3,-11.45 -15.46,-13.57 -23.54,-4.4 -1.39,1.58 -2.55,3.35 -3.9,5.12 -4.73,-12.02 -16.96,-13.66 -25.81,-0.8 -0.21,-0.2 -0.48,-0.35 -0.63,-0.58 -3.02,-4.76 -6.98,-8.16 -12.96,-7.77 -6.92,0.45 -10.8,5.13 -13.79,10.78 -0.59,1.1 -1.06,2.43 0.12,3.36 1.27,0.98 2.52,0.34 3.56,-0.65 1.27,-1.19 2.47,-2.44 3.72,-3.65 4.53,-4.32 8.74,-3.62 11.94,1.83 3.08,5.28 3.47,11.02 3.08,16.89 -0.23,3.59 -0.06,7.15 0.78,10.64 0.84,3.48 2.65,5.05 5.34,4.74 2.6,-0.29 4.04,-2.45 3.83,-5.98 -0.19,-3.35 -0.62,-6.71 -0.72,-10.07 -0.18,-6.17 1.2,-12.02 4.89,-17.04 2.97,-4.04 6.11,-3.48 8.11,1.08 2.68,6.1 3.51,12.51 3.71,19.09 0.09,2.82 1.9,4.71 4.21,4.79 2.42,0.08 4.24,-1.92 4.45,-4.86 0.16,-2.22 0.2,-4.49 0.59,-6.69 1.06,-5.87 2.55,-11.62 7.11,-15.92 3.21,-3.02 5.74,-2.38 7.6,1.64 1.62,3.48 1.52,7.16 1.28,10.83 -0.45,6.8 0.85,13.18 4.14,19.17 3.31,6.06 11.99,8.59 17.2,4.1 3.58,-3.09 4.82,-1.67 7.44,0.75 8.11,7.45 19.38,5.48 23.57,-4.86 0.33,-0.78 0.78,-1.52 1.2,-2.36 0.46,0.39 0.72,0.56 0.91,0.77 6.48,7.3 14.3,9.88 23.67,6.57 1.38,-0.49 2.06,0.08 2.96,0.78 5.87,4.61 12.21,5.21 18.98,2.24 7.34,-3.21 12.69,-8.45 15.93,-15.76 0.81,-1.85 1.33,-2.92 3.56,-1.35 2.35,1.67 5.24,2.06 8.16,2.18 4.7,0.19 8.68,-1.47 12.29,-4.64l0 -0.05c0.59,1.91 0.95,3.4 1.51,4.82 3.49,8.93 9.65,14.61 19.56,15.14 7.8,0.42 13.58,-3.62 18.41,-9.31 2.91,-3.42 5.21,-7.24 7.51,-11.55 2.18,4.61 4.51,8.54 7.85,11.78 7.27,7.07 14.65,6.98 21.57,-0.38 1.06,-1.14 1.63,-1.22 2.95,-0.34 9.72,6.44 20.15,6.33 28.5,0.12 0.02,-0.08 0.69,-3.16 -1.86,-4.85 -2.58,-1.72 -5.72,-0.62 -5.72,-0.62l-0 -0c-4.79,2.4 -10.22,2.06 -15.08,-1.09 -3.08,-2 -3.78,-4.06 -2.47,-7.49 1.22,-3.15 2.6,-6.22 5.11,-8.59 0.63,-0.59 1.39,-1.47 2.04,0.09 2.75,6.6 8.49,9.62 14.6,12.2 0.38,0.15 0.73,0.33 1.29,0.58 0,0 3.71,1.46 11.6,1.63 0.27,-0.02 0.56,-0.03 0.86,-0.02 9.19,0.24 17.86,-1.57 25.53,-6.94 1.57,-1.1 1.95,-0.59 2.35,1.04 0.96,3.86 1.64,7.77 2.27,11.7 0.29,1.87 -0.17,2.92 -2.1,3.68 -6.02,2.37 -11.64,5.47 -16.19,10.19 -5.06,5.24 -6.1,12.61 -2.68,18.61 3.48,6.1 11.45,9.82 17.99,8.44 6.9,-1.45 9.68,-6.65 11.44,-12.66 1.01,-3.47 1.54,-7.03 1.73,-10.61 0,0 -1.5,-1.33 -5.02,-1.06 -3.52,0.28 -4.58,4.29 -4.58,4.29 -0.26,2.29 -0.74,4.55 -1.51,6.75 -0.79,2.27 -1.68,4.68 -4.48,4.81 -3.09,0.15 -5.82,-1.04 -7.6,-3.75 -1.55,-2.37 -1.36,-4.82 0,-7.22 3.57,-6.24 20.99,-13.46 27.6,-15.05zm-52.07 -88.14l-0 0c-6.56,-5.14 -8.46,-10.58 -8.46,-18.54 -0.11,-5.69 0.76,-10.29 4.51,-13.92 1.44,-1.39 3.1,-2.58 5.18,-1.57 2.07,1 2.77,2.96 2.57,5.14 -0.55,5.78 -2.64,10.84 -5.99,15.29 -0.01,0.03 -0.91,2.05 1.65,4.22 7.18,6.09 12.24,-13.02 12.74,-17.02 0.77,-6.3 -2.05,-12.38 -6.96,-14.85 -4.98,-2.52 -10.93,-1.3 -15.71,3.2 -2.81,2.64 -4.85,5.78 -6.04,9.44 -2.53,7.79 -1.91,15.52 0.85,23.09 0.72,1.99 0.32,2.67 -1.46,3.37 -6.44,2.52 -12.62,1.93 -17.91,-2.37 -9.16,-7.45 -13.55,-17.79 -13.76,-29.2 -0.17,-8.48 -0.7,-16.89 -1.24,-25.32 -0.13,-1.99 -1.22,-3.29 -3.23,-3.44 -1.97,-0.14 -2.86,1.25 -3.33,2.96 -0.15,0.6 -0.21,1.2 -0.3,1.81 -0.94,6.46 -1.77,12.94 -1.2,19.5l-0.05 0.01c0.05,0.58 0.04,1.05 -0.03,1.39 0,0 -0.28,9.46 -2.18,13.84l-0.06 0.29c-0.73,3.8 -1.57,7.58 -2.49,11.34 -0.7,2.82 -2.12,5.28 -4.25,7.3 -3.69,3.51 -7.27,3.74 -11.09,0.34 -4.91,-4.36 -7.26,-9.96 -7.36,-16.5 -0.13,-9.94 6.06,-14.14 12.8,-14.22l0 -0c0,0 2.97,-0.66 3.03,-2.77 0.06,-1.96 -0.74,-3.09 -2.27,-3.22 -9.36,-0.37 -19.17,4.57 -21.25,17.3 -1.57,9.56 1.36,17.99 8.08,24.95 7.56,7.83 16.67,7.86 24.56,0.29 4.1,-3.94 6.62,-8.74 8.23,-14.86 0.85,1.64 1.34,2.64 1.89,3.62 7.79,13.88 23.03,22.61 40.1,14.02 1.43,-0.72 2.19,-0.14 3.18,0.71 9.29,8.01 19.51,5.49 27.5,-1.09 0.68,-0.56 1.19,-1.4 1.61,-2.2 1.05,-2.02 0.23,-2.82 -1.9,-2.68 -1.99,0.13 -3.72,1.05 -5.57,1.61 -4.07,1.23 -8.16,1.93 -12.22,0 -1.01,-0.48 -1.72,-0.86 -2.14,-1.23zm-144.15 -22.48l0 0c0,0 0.24,5.86 3.11,16.21 1.91,4.94 3.58,9.44 6.77,13.15 1.49,1.72 3.13,3.21 5.46,3.73 1.54,0.34 2.86,-0.06 3.85,-1.25 1.04,-1.23 1.08,-2.64 0.3,-4 -0.59,-1.06 -1.33,-2.05 -2.06,-3.02 -3.41,-4.57 -5.66,-9.63 -6.85,-15.21 -1.26,-5.93 -1.15,-11.97 -1.62,-17.95 -0.25,-3.28 -1.92,-5.73 -4.32,-5.24 -2.47,0.52 -3.97,-0.46 -5.72,-1.7 -1.67,-1.19 -3.62,-1.83 -5.64,-2.24 -8.3,-1.67 -15.52,0.91 -22.09,5.74 -6.81,5 -11.41,11.86 -15.57,19.05 -2.13,3.71 -4.13,7.51 -6.55,11.04 -2.39,3.49 -6.05,4.71 -10.21,4.19 -4.04,-0.52 -5.84,-3.44 -6.89,-6.92 -0.67,-2.24 -1.14,-4.55 -1.43,-6.87 -0.71,-5.69 0.38,-11.4 0.08,-17.12 -0.14,-2.6 -0.82,-4.7 -3.67,-5.2 -2.27,-0.39 -3.99,1.57 -4.47,4.79 -0.68,4.67 -0.33,9.37 -0.49,14.05 -0.18,5.34 -2.38,9.83 -5.97,13.7 -1,1.09 -2.21,1.87 -3.69,1.97l-0.01 0.03c-6.24,0.44 -13.9,-8.44 -12.62,-14.6 1.58,-7.63 2.09,-15.37 1.87,-23.13 -0.17,-5.89 -0.4,-11.83 -1.61,-17.65 -0.41,-2 -1.61,-3.29 -3.78,-3.34 -2.06,-0.05 -3.18,1.19 -3.77,2.98 -0.26,0.76 -0.43,1.57 -0.52,2.38 -0.58,4.94 -1.14,9.9 -1.76,15.36l-0 -0c0.44,3.63 1.2,11.09 0.63,15.92 0.86,6.34 -2.48,15.81 -6.84,19.11 -3.33,2.52 -7.13,3.02 -10.99,1.52 -4.51,-1.77 -7.96,-4.99 -10.21,-9.26 -3.88,-7.36 1.71,-21.15 9.5,-23.66 3.31,-1.08 5.63,0.66 7.24,0.79 4.88,0.39 6.39,-10.48 -4.01,-10.3 -8.23,0.15 -16.02,5.67 -19.46,14.42 -1.83,4.63 -2.14,9.54 -2.08,14.45 0.14,10.61 11.49,22.15 22.09,22.63 8.06,0.36 14.23,-2.81 18.61,-9.77 3.89,5.28 8.76,8.72 15.13,9.77 7.02,1.15 11.45,-2.87 15.33,-8.26 2.43,4.98 5.83,8.17 10.79,9.45 7.44,1.91 15.74,-1.28 20.32,-8.01 2.33,-3.42 4.34,-7.05 6.6,-10.76 2.62,11.83 6.64,17.27 14.43,18.82 7.22,1.44 23.03,-2.87 22.32,-9.71 -0.28,-2.73 -3.45,-6.95 -7.86,-2.02 -2.74,3.05 -8.52,3.77 -8.51,3.77 -6.04,0.1 -8.96,-1.57 -10.75,-6.4 -4.14,-11.08 1.32,-26.36 17.62,-26.17 6.04,0.08 10.37,5.07 9.99,10.71zm-271.89 67.57c-11.69,-7.3 -13.49,-22.24 -3.74,-32.38 0,-0 0.01,-0.01 0.01,-0.01 7.54,-7.82 16.98,-11.37 24.79,-11.13 12.7,0.04 21.62,2.63 29.88,7.45 12.58,7.34 23.33,16.77 32.06,28.46 0.67,0.9 1.27,1.85 1.83,2.82 0.72,1.29 0.6,2.59 -0.42,3.66 -0.9,0.95 -2.05,1.37 -3.34,0.81 -8.96,-3.88 -17.99,-2.05 -27.07,-0.53 -11.36,1.89 -22.56,4.7 -34.1,5.53 -7.12,0.51 -13.84,-0.9 -19.9,-4.69zm-27.77 -129.22c-3.53,32.59 -5.39,65.29 -6.05,98.06 -1,49.27 1.09,98.37 8.29,147.17 2.87,19.51 6.46,38.85 13.49,57.37 5.82,15.36 13.51,29.57 26.15,40.47 18.8,16.22 40,20.62 63.27,11.34 20.81,-8.3 36.26,-22.81 46.69,-42.65 0.46,-0.85 0.58,-2.3 1.67,-2.32 1.1,0 1.3,1.43 1.76,2.28 8.75,15.89 20.55,28.88 36.2,38.23 18.31,10.95 37.93,16.07 59.22,12.42 25.53,-4.39 43.48,-18.98 54.96,-41.95 0.51,-1.01 0.71,-2.3 2.01,-2.96 1.19,2.3 2.28,4.49 3.44,6.64 14.91,27.37 43.04,42.55 73.93,38.99 27.95,-3.21 50.07,-16.92 66.86,-39.38 3.42,-4.57 6.27,-9.49 9.36,-15.09 0.83,1.52 1.34,2.41 1.8,3.3 8.08,15.66 19.84,27.89 34.94,36.84 18,10.67 36.93,14.04 56.83,5.81 15.52,-6.43 26.58,-17.95 34.93,-32.22 11.17,-19.06 16.47,-40.11 20.27,-61.6 6.98,-39.49 9.94,-79.35 10.84,-119.39 0.58,-25.83 0,-51.65 -1.2,-77.46l0.01 0.02c-0.71,-15.29 -1.77,-30.56 -3.1,-45.81 -1.85,-21.15 -4.53,-42.2 -7.82,-63.16 -2.58,-16.43 -4.38,-32.97 -7.86,-49.25 -0.86,-4.03 -3.13,-6.42 -7.16,-7.4 -20.94,-5.11 -42.21,-8.45 -63.52,-11.44 -33.15,-4.65 -66.43,-8.06 -99.81,-10.67 -36.53,-2.85 -73.13,-4.73 -109.77,-5.11 -28.29,-0.3 -56.55,0.29 -84.8,1.76 -19.05,1 -38.09,2.28 -57.12,3.76 -24.92,1.94 -49.79,4.52 -74.59,7.67 -27.83,3.54 -55.6,7.52 -82.94,14 -4.04,0.95 -6.33,3.28 -7.28,7.3 -1.8,7.67 -2.78,15.46 -3.94,23.22 -3.58,23.71 -7.38,47.38 -9.96,71.23zm492.18 94.45c0.81,-21.53 7.8,-42.22 23.1,-59.63 8.51,-9.69 18.87,-16.92 31.72,-19.63 10.54,-2.22 19.69,0.65 26.47,9.3l0.01 0c6.61,8.42 7.89,17.66 3.51,27.58 -4.99,11.28 -13.7,18.84 -24.33,24.51 -9.65,5.15 -20.05,8.6 -30.03,13 -4.11,1.81 -8.12,3.82 -12,6.1 -4.88,2.87 -9.41,6.1 -12.71,10.83 -0.68,0.98 -1.45,2.19 -2.88,1.87 -1.53,-0.33 -1.86,-1.75 -2.18,-3.05 -0.76,-3.11 -0.65,-6.27 -0.67,-10.88zm93.31 -45.53c0.85,-1.2 1.44,-3.51 2.81,-3.19 1.69,0.38 0.93,2.8 1.38,3.87 -0.43,11.04 -4.68,19.65 -13.76,25.55 -1.54,1 -3.58,2.66 -5.23,0.91 -1.66,-1.76 0.17,-3.62 1.26,-5.11 5.07,-6.87 10.2,-13.71 13.41,-21.73 0.04,-0.09 0.08,-0.19 0.13,-0.28l0 -0.01zm-94.75 8.27c-1.41,-0.52 -1.35,-2.33 -1.45,-3.89 0.72,-6.16 2.91,-11.98 5.98,-17.4 4.43,-7.79 10.46,-14.26 17.8,-19.46 2.09,-1.48 4.36,-2.63 6.79,-3.43 1.77,-0.58 3.91,-1.78 5.18,0.54 1.14,2.11 -0.88,3.43 -2.16,4.52 -6.4,5.39 -12.51,11.02 -17.7,17.65 -4,5.11 -6.44,11.07 -9.71,16.57 -0.52,0.87 -0.95,1.81 -1.55,2.62 -0.81,1.1 -1.61,2.85 -3.17,2.28l-0.01 -0.01zm-42.19 -111.28c-17.27,2.97 -33.31,9.37 -48.88,17.15 -11.22,5.6 -22.45,11.25 -34.32,15.36 -9.93,3.44 -20.11,5.28 -30.63,2.68 -3.15,-0.78 -6.04,-2.2 -8.84,-3.77 0.66,-1.15 1.35,-1.04 2.22,-0.74l0 -0.02c12.93,4.36 25.13,1.26 37.06,-3.84 10.98,-4.7 21.5,-10.35 32.05,-15.93 16.47,-8.71 33.64,-15.66 52.09,-18.97 19,-3.4 35.6,0.81 49.04,15.36 8.5,9.2 12.45,19.71 8.82,32 -3.68,12.48 -12.77,19.62 -25.06,22.75 -6.65,1.69 -13.41,1.4 -19.8,-1.46 -7.76,-3.48 -12.81,-9.16 -13,-18.01 -0.18,-8.24 4.46,-13.76 11.21,-17.68 7.76,-4.5 15.58,-3.39 20.79,2.75 2.29,2.69 3.52,5.77 2.51,9.35 -0.63,2.26 -2.15,3.81 -4.63,3.68 -2.35,-0.11 -2.71,-1.99 -2.98,-3.93 -0.67,-4.67 -4.52,-6.9 -9,-5.31 -6.49,2.28 -10.11,7.9 -8.36,13.26 1.34,4.14 4.55,6.4 8.51,7.71 9.72,3.17 22,-1.42 27.91,-10.39 5.43,-8.25 4.1,-18.72 -2.97,-27.11 -11.63,-13.82 -26.41,-17.87 -43.72,-14.89zm26.78 -17.55c-0.49,-4.41 3.85,-9.95 8.57,-10.97l-0.01 0.01c4.53,-0.98 9.01,1.85 10.28,6.96 0.63,2.56 1.19,3.1 3.87,2.08 6.25,-2.38 12.18,2.15 11.66,8.97 -0.24,3.16 0.69,2.94 3.06,2.49 8.08,-1.48 12.82,4.17 10.15,11.97 -0.32,0.92 -1.11,1.72 0.56,2.34 6.97,2.58 8.58,8.56 3.93,14.35 -0.3,0.38 -0.59,0.78 -0.93,1.24 1.66,1.21 3.37,2.12 4.25,4 1.47,3.08 1.04,6.48 -1.53,8.64 -3.14,2.63 -6.8,4.06 -10.97,3.82 -0.65,-0.04 -1.58,0.2 -1.8,-0.74 -0.28,-1.17 0.85,-1.26 1.52,-1.52 2.28,-0.88 4.58,-1.73 6.59,-3.12 1.25,-0.88 2.52,-1.86 2.12,-3.72 -0.35,-1.68 -1.74,-2.11 -3.1,-2.6 -1.65,-0.6 -3.37,-0.77 -5.11,-0.81 -1.57,-0.02 -2.92,-0.61 -3.18,-2.28 -0.28,-1.77 1.13,-2.52 2.51,-2.96 2.09,-0.65 3.99,-1.55 5.57,-3.07 1.53,-1.48 2.15,-3.43 1.33,-5.31 -0.88,-2.05 -2.86,-1.34 -4.58,-1.09 -1.83,0.28 -3.52,1 -5.24,1.64 -1.61,0.59 -3.28,1.01 -4.25,-0.94 -1.02,-2.06 0.49,-2.96 1.99,-3.76 2.83,-1.5 4.79,-3.78 5.79,-6.8 0.93,-2.83 -0.19,-4.2 -3.18,-4.35 -3.33,-0.17 -6.1,1.38 -8.97,2.67 -1.34,0.61 -2.87,1.61 -4.09,-0.14 -1.13,-1.61 0.24,-2.57 1.15,-3.65 1.68,-2.02 2.67,-4.41 2.42,-7.04 -0.41,-4.14 -3.93,-5.76 -7.6,-3.63 -1.89,1.09 -3.32,2.68 -4.76,4.27 -1.05,1.15 -2.23,2.46 -3.88,1.25 -1.49,-1.07 -0.69,-2.46 -0.09,-3.83 1.52,-3.49 1.64,-6.96 -1,-10.01 -2.11,-2.43 -4.57,-2.2 -6.57,0.71 -1.19,1.74 -1.9,3.81 -2.89,5.7 -0.47,0.89 -1.03,2.01 -2.23,1.73 -1.15,-0.27 -1.29,-1.49 -1.39,-2.49zm-53.62 10.14c-13.65,5.09 -25.91,12.8 -38.41,20.08 -9.48,5.51 -19.19,10.35 -30.22,11.82 -4.85,0.65 -9.69,1.37 -14.58,0.23 -0.43,-0.1 -0.75,-0.29 -0.88,-0.77 0.61,-0.85 1.57,-0.75 2.43,-0.75 13.66,-0.13 25.87,-4.94 37.48,-11.63 9.1,-5.25 18.01,-10.8 27.51,-15.31 4.97,-2.35 10.03,-4.45 15.48,-5.54 1.21,-0.24 2.38,-0.34 3.88,-0.1 -0.73,1.41 -1.78,1.64 -2.68,1.97zm-134.18 39.58c-6.77,3.68 -14.01,4.67 -21.59,3.98 -11.8,-1.06 -22.44,-5.69 -33.06,-10.46 -13.03,-5.85 -25.43,-13.04 -38.88,-17.97 -12.59,-4.61 -25.32,-8.53 -38.9,-8.65 -15.38,-0.12 -26.8,7.22 -35.13,19.42 -8.78,12.86 -1.9,29.16 13.79,33.79 5.15,1.52 10.27,1.61 15.27,-0.53 4.91,-2.1 7.96,-6.63 7.44,-10.88 -0.53,-4.33 -5.77,-9.29 -10.5,-9.96 -3.57,-0.5 -6.77,1.76 -7.31,5.35 -0.34,2.21 -0.54,4.58 -3.52,4.37 -2.71,-0.2 -3.98,-2.14 -4.39,-4.73 -0.98,-6.27 5.78,-13.31 13.2,-13.71 8.87,-0.47 18.77,6.88 21.09,15.66 2.29,8.68 -2.53,17.98 -11.56,22.32 -3.88,1.86 -7.92,2.69 -13.07,2.69 -16.54,0 -30.94,-11.39 -33.61,-27 -1.85,-10.82 1.87,-20.03 9.14,-28.05 13.53,-14.93 30.33,-19.41 49.72,-15.86l-0.01 0.01c19.99,3.66 38.38,11.56 56.16,21.13 12.3,6.62 24.58,13.36 38.04,17.38 8.61,2.57 17.36,3.47 26.12,0.4 0.29,-0.1 0.6,-0.12 0.87,-0.25 0.75,-0.35 1.54,-0.37 1.81,0.44 0.21,0.67 -0.59,0.82 -1.11,1.1zm19.94 -7.92c-8.75,0.02 -16.02,-6.99 -16.03,-15.48 -0.02,-8.54 6.8,-14.83 16.03,-14.81 9.06,0.02 15.84,6.27 15.87,14.66 0.04,8.53 -7.15,15.59 -15.87,15.63zm-82.63 68.64c4.26,-4.64 8.64,-9.22 14.4,-12.1 1.01,-0.5 2.18,-0.61 3.11,0.37 0.86,0.89 0.76,1.92 0.17,2.81 -3.48,5.15 -7.09,10.2 -11.79,14.33 -0.7,0.61 -1.61,0.86 -2.54,0.92 -1.56,0 -2.73,-0.67 -3.55,-2 -0.9,-1.49 -0.81,-3.2 0.22,-4.32l-0.01 -0.01zm52.67 -68.75c-5.47,2.01 -10.6,1.01 -15.68,0.37 -10.5,-1.34 -19.88,-5.74 -28.92,-10.99 -13.21,-7.67 -26.16,-15.83 -40.56,-21.24 -0.65,-0.24 -1.22,-0.67 -2.29,-1.28 2.88,-1.11 5.15,-0.11 7.32,0.52l0.02 0c11.39,3.26 21.46,9.3 31.57,15.22 9.23,5.42 18.39,10.93 28.81,13.89 5.31,1.51 10.7,2.42 16.22,2.56 1.1,0.02 2.27,-0.11 3.52,0.96zm-160.06 137.1c-7.19,-9.79 -17.86,-14.28 -28.43,-18.91 -8.12,-3.57 -16.52,-6.47 -24.48,-10.44 -11.72,-5.84 -21.48,-13.66 -26.88,-26.05 -6.61,-15.17 1.91,-32.82 18,-36.59l0 0.01c7.28,-1.71 14.37,-0.24 21.14,2.86 15.06,6.91 25.87,18.17 33.78,32.52 7.83,14.23 11.55,29.51 12.03,45.19 -0.09,3.83 0.17,7.23 -0.95,10.48 -0.9,2.6 -2.65,3.06 -4.22,0.92zm8.02 -53.63c-0.11,1.47 -0.08,3.28 -1.53,3.74 -1.35,0.43 -2.31,-1.09 -2.96,-2.21 -1.85,-3.16 -3.71,-6.33 -5.33,-9.6 -5.12,-10.38 -13.04,-18.36 -21.77,-25.66 -1.16,-0.97 -2.3,-2.01 -3.31,-3.14 -0.78,-0.89 -1.74,-1.86 -0.82,-3.24 0.91,-1.38 2.25,-1.28 3.56,-0.92 2.25,0.63 4.48,1.44 6.44,2.74 13.32,8.79 22.28,20.67 25.56,36.5 0.12,0.59 0.12,1.22 0.18,1.78zm-39.62 -72.85c-3.62,-2.89 -3.55,-8.24 0.04,-11.2 0.69,-0.58 1.5,-1.04 2.53,-1.73 -3.16,-3.1 -4.29,-6.54 -3.1,-10.51l0.02 -0.03c0.78,-2.62 2.48,-4.49 5.29,-4.9 1.71,-0.26 2.03,-0.8 1.28,-2.38 -1.04,-2.18 -1.2,-4.51 -0.4,-6.84 1.49,-4.32 5.31,-6.25 10.73,-5.11 2.48,0.52 3,0.21 2.82,-2.48 -0.47,-7.24 5.67,-11.44 12.53,-8.86 0.66,0.25 1.32,0.5 2.09,0.81 0.28,-0.97 0.53,-1.85 0.78,-2.72 1.05,-3.68 3.12,-6.54 7.02,-7.29 4.26,-0.81 7.5,1.34 10.01,4.58 1.39,1.81 2.02,4.01 1.96,6.3 -0.03,1 -0.2,2.21 -1.33,2.53 -1.24,0.36 -1.78,-0.78 -2.25,-1.66 -0.76,-1.44 -1.3,-2.98 -2.06,-4.42 -1.04,-1.95 -2.44,-3.93 -4.84,-3.58 -2.53,0.38 -3.77,2.46 -4.33,4.96 -0.57,2.52 -0.24,4.84 0.97,7.08 0.65,1.18 0.89,2.41 -0.27,3.32 -1.34,1.05 -2.53,0.27 -3.48,-0.75 -1.54,-1.64 -2.98,-3.36 -4.89,-4.58 -1.96,-1.26 -4.1,-1.64 -6.01,-0.28 -1.88,1.35 -2.32,3.56 -1.81,5.78 0.45,1.99 1.1,3.92 2.67,5.39 0.93,0.86 1.72,1.87 0.82,3.2 -0.97,1.45 -2.21,0.97 -3.52,0.44 -3,-1.22 -5.78,-3.02 -9.22,-2.94 -3.49,0.09 -4.62,1.58 -3.36,4.87 1.06,2.76 2.91,4.86 5.54,6.27 1.48,0.78 3.05,1.65 2.08,3.73 -0.93,1.97 -2.62,1.63 -4.22,1.01 -1.9,-0.74 -3.81,-1.43 -5.83,-1.77 -1.47,-0.25 -3.05,-0.52 -3.88,0.87 -0.88,1.48 -0.57,3.2 0.4,4.64 1.36,2.05 3.46,3.1 5.72,3.87 1.58,0.55 3.4,1.04 3.15,3.1 -0.28,2.2 -2.22,2.28 -4.03,2.4 -1.4,0.1 -2.82,0.4 -4.19,0.76 -1.49,0.39 -2.98,0.97 -3.21,2.83 -0.24,1.86 1.07,2.87 2.37,3.61 2.02,1.15 4.24,1.96 6.34,2.97 0.67,0.32 1.83,0.37 1.6,1.49 -0.23,1.08 -1.32,0.76 -2.05,0.8 -3.94,0.19 -7.42,-1.17 -10.45,-3.59zm-47.67 93.99c-8.66,-5.89 -12.58,-14.38 -13.06,-24.62 -0.08,-1.57 -0.05,-3.37 1.53,-4.73 0.4,0.44 0.71,0.69 0.92,1.01 0.68,1.01 1.51,1.97 1.95,3.09 3.1,7.74 8.08,14.31 12.89,20.99 1.2,1.67 3.48,3.67 1.71,5.57 -1.89,2.01 -4.2,-0.1 -5.94,-1.31zm26.45 122.83c2.91,0.05 5.38,2.85 5.28,5.97l0.01 0c-0.09,2.92 -2.82,5.41 -5.92,5.4 -3.01,0 -5.42,-2.5 -5.29,-5.49 0.14,-3.05 3.02,-5.93 5.92,-5.88zm-6.02 21.03c-0.06,2.84 -2.62,5.21 -5.69,5.26 -2.95,0.05 -5.12,-1.96 -5.21,-4.82 -0.09,-3.06 2.49,-5.68 5.59,-5.67 2.93,0.01 5.34,2.4 5.31,5.21 -0,0.01 -0,0.01 -0,0.01zm-8.62 12.46c2.79,-0.01 4.95,2.16 4.98,5.02 0.05,3.06 -2.31,5.53 -5.24,5.5 -0.01,-0 -0.01,-0 -0.01,-0 -2.67,-0.06 -4.88,-2.42 -4.88,-5.19 0,-2.85 2.39,-5.31 5.15,-5.32zm14.52 -5.68c4.15,-14.08 20.58,-23.55 36.04,-20.77 12.51,2.25 18.74,7.79 20.9,19.18 1.51,7.91 -1.45,14.3 -7.89,18.92 -5.63,4.04 -11.56,3.44 -17.27,0.09 -4.03,-2.37 -6.03,-6.06 -5.59,-10.77 0.24,-2.54 1.26,-4.96 4.29,-5.14 2.84,-0.16 3.96,1.9 4.14,4.34 0.3,4.22 7.3,5.64 10.1,3.1 4.9,-4.44 4.24,-14.15 -1.87,-17.94 -7.13,-4.41 -14.87,-4.97 -22.52,-1.33 -7.28,3.47 -11.92,9 -12.5,17.47 -0.66,9.51 4.92,19.01 13.78,22.97 5.51,2.47 12.36,3.79 21.33,3.77 11.25,-0.25 23.53,-4.29 35.61,-9.07 16.22,-6.41 31.77,-14.38 48.04,-20.72 12.01,-4.68 24.22,-8.74 37.04,-10.23 14.81,-1.74 28.57,0.83 39.45,12.08 5.72,5.91 9.13,12.99 9.6,21.3 0.72,13.05 -9.69,24.79 -23.14,26.32l-0.01 0.01c-7.53,0.86 -14.46,-0.23 -20.23,-5.58 -5.04,-4.67 -5.48,-10.42 -3.85,-16.62 1.6,-6.07 5.27,-10.08 11.62,-11.16 4.42,-0.76 8.06,0.84 10.76,4.35 1.68,2.19 1.63,5.21 -0.07,6.42 -2.15,1.53 -3.72,0.24 -5.34,-1.24 -2.79,-2.58 -6.26,-1.89 -8.05,1.49 -3.08,5.83 -0.86,11.13 5.5,12.83 3.5,0.94 7.1,0.87 10.6,-0.09 11.15,-3.05 15.87,-13.16 11.11,-23.71 -4.81,-10.63 -13.57,-15.54 -24.71,-17.08 -10.74,-1.5 -20.89,1.26 -30.97,4.23 -16.7,4.9 -32.29,12.58 -48.1,19.66 -14.07,6.3 -28.22,12.39 -43.52,15.13 -12.92,2.31 -25.63,1.9 -37.66,-4.09 -13.73,-6.83 -20.93,-23.47 -16.61,-38.11zm12.31 41.28c13.22,9.11 27.74,11.07 43.22,8.31 2.72,-0.48 5.45,-1.43 8.65,-0.65 -1.7,2.1 -3.82,3.04 -5.88,3.91l0.01 -0.01c-13.41,5.62 -27.12,5.94 -40.58,0.8 -11.28,-4.3 -19.43,-12.52 -24.77,-23.42 -0.14,-0.28 -0.27,-0.56 -0.34,-0.85 -0.44,-1.65 -1.29,-3.75 0.42,-4.74 1.59,-0.92 2.57,1.18 3.53,2.21 4.86,5.25 9.81,10.34 15.75,14.43zm263.92 -26c6.77,-13.57 18.36,-19.98 32.99,-21.67 0.81,-0.08 1.63,-0.14 2.44,-0.15 1.12,-0.02 2.24,0 3.37,0 13.95,0.36 27.11,4.32 40.05,9.1 16.47,6.08 32.16,14.01 48.35,20.75 11.69,4.87 23.59,9.12 36.35,10.33 8.37,0.8 16.52,-0.12 24.28,-3.5 10.28,-4.49 15.96,-16.25 13.22,-27.12 -2.39,-9.44 -13.48,-16.71 -23.64,-15.5 -3.25,0.4 -6.45,1.03 -9.39,2.58 -4.82,2.56 -7.68,9.64 -5.96,14.74 1.5,4.42 5.29,6.43 9.33,4.96 1.87,-0.69 3.16,-1.83 3.47,-3.87 0.39,-2.56 1.39,-4.73 4.4,-4.42 2.96,0.32 3.84,2.77 4.11,5.33 0.66,6.2 -4.54,11.84 -11.79,12.92 -11.53,1.72 -21.57,-9.7 -18.99,-21.59 2.44,-11.26 8.43,-16.7 20.8,-18.93 15.48,-2.81 31.88,6.58 36.11,20.67 4.28,14.23 -2.56,30.77 -15.69,37.71 -10.88,5.76 -22.54,6.76 -34.52,5.16 -16.59,-2.2 -31.78,-8.73 -46.9,-15.46l0.01 0.01c-15.37,-6.84 -30.52,-14.23 -46.61,-19.31 -7.4,-2.33 -14.89,-4.49 -22.64,-5.03 -12.51,-0.87 -24.12,1.25 -32.24,12.14 -2.39,3.21 -4.15,6.78 -4.55,10.88 -0.92,9.42 4.96,17.03 14.41,18.29 4.38,0.59 8.79,0.76 12.66,-2.06 3.95,-2.87 3.99,-10.19 0.05,-13.08 -2.2,-1.62 -4.36,-1.53 -6.31,0.47 -1.61,1.65 -3.48,3.11 -5.5,1.14 -1.99,-1.93 -1.32,-4.35 0.18,-6.43 4.72,-6.55 15.65,-5.39 20.23,2.12 6.8,11.16 1.32,24.01 -11.63,26.73 -8.24,1.73 -16.05,0.3 -23.01,-4.68 -10.74,-7.7 -13.69,-20.68 -7.42,-33.24zm210.11 -31.71c-3.21,0.05 -6.02,-2.59 -5.99,-5.63l0.01 -0.01c0.03,-3.02 2.42,-5.65 5.2,-5.74 3.01,-0.1 6,2.95 6,6.11 0,2.88 -2.3,5.23 -5.21,5.28zm-62.03 67.62c-0.92,-0.48 -2.15,-0.75 -2.54,-2.41 3.84,-0.56 7.26,0.67 10.74,1.17 18.1,2.65 34.14,-1.52 47.8,-14.09 3.47,-3.19 6.54,-6.73 9.84,-10.06 0.69,-0.7 1.4,-1.8 2.53,-1.33 1.28,0.53 1.05,1.91 0.88,2.98 -0.5,3.44 -2.43,6.28 -4.31,9.04 -15.9,23.28 -45.54,24.99 -64.94,14.7zm67.36 -58.21c0.09,-2.84 2.58,-5.1 5.52,-5.01 2.98,0.1 5.41,2.62 5.38,5.58 -0.04,2.86 -2.19,4.92 -5.12,4.92 -3.21,0 -5.87,-2.54 -5.78,-5.49l0.01 0zm8.91 23.2c-2.82,0.08 -5.16,-2.19 -5.29,-5.15 -0.12,-2.98 2.06,-5.36 4.95,-5.36 2.77,0 5.16,2.43 5.2,5.29 0.04,2.77 -2.19,5.16 -4.86,5.23zm4.82 -88.16c-7.73,0.05 -13.92,-1.99 -20,-4.39 -7.01,-2.76 -13.97,-5.64 -20.98,-8.41 -2.85,-1.13 -5.79,-1.89 -8.88,-2.06 -1.08,-0.06 -2.54,-0.18 -2.65,-1.51 -0.08,-1.16 1.29,-1.3 2.25,-1.64 4.22,-1.52 8.41,-0.97 12.67,-0.21 9.37,1.66 18.22,5.09 27.17,8.13 7.85,2.67 15.79,2.63 23.85,1.64 2.16,-0.26 5.3,-1.15 5.97,1.22 0.53,1.87 -2.44,3.15 -4.42,3.97l0.01 -0.01c-5.13,2.11 -10.47,3.28 -14.99,3.28zm4.36 -19.7c-9.27,1.2 -18.23,-1.21 -27.26,-2.71 -9.04,-1.49 -17.95,-3.73 -27.16,-4.29 -4.38,-0.27 -8.54,0.27 -12.59,1.81 -1.72,0.66 -3.37,1.15 -4.74,-0.48 -1.51,-1.8 -0.57,-3.48 0.52,-5.01 3.56,-5 7.48,-9.73 11.97,-13.9 8.78,-8.15 18.14,-15.57 29.49,-19.91 5.85,-2.24 11.91,-3.58 19.19,-3.39 7.96,-0.43 15.93,2.25 23.12,7.46 10.4,7.54 13.33,20.19 6.72,29.81l-0.01 0c-4.6,6.68 -11.48,9.62 -19.23,10.61zm-524.55 107.85l0.01 0c-0.01,0 -0.01,-0 -0.01,0zm-34.11 -335.11c-0.11,0.47 -0.52,0.53 -1.37,0.53l-0.01 0c0.03,0.05 -0.16,-0.2 -0.16,-0.45 -0.01,-0.49 0.42,-0.7 0.81,-0.72 0.37,-0.02 0.88,0.04 0.74,0.65zm584.65 0.53c-0.57,0 -0.99,-0.06 -1.09,-0.54 -0.14,-0.62 0.39,-0.66 0.75,-0.63 0.39,0.02 0.82,0.24 0.78,0.73 -0.01,0.19 -0.34,0.36 -0.44,0.44z"/>
 </g>
</svg>
