<?xml version="1.0" encoding="UTF-8"?>
<!DOCTYPE svg PUBLIC "-//W3C//DTD SVG 1.1//EN" "http://www.w3.org/Graphics/SVG/1.1/DTD/svg11.dtd">
<!-- Creator: CorelDRAW -->
<svg xmlns="http://www.w3.org/2000/svg" xml:space="preserve" width="79.5429mm" height="73.2034mm" version="1.1" style="shape-rendering:geometricPrecision; text-rendering:geometricPrecision; image-rendering:optimizeQuality; fill-rule:evenodd; clip-rule:evenodd"
viewBox="0 0 301.21 277.21"
 xmlns:xlink="http://www.w3.org/1999/xlink"
 xmlns:xodm="http://www.corel.com/coreldraw/odm/2003">
 <defs>
  <style type="text/css">
   <![CDATA[
    .fil0 {fill:gray}
   ]]>
  </style>
 </defs>
 <g id="Capa_x0020_1">
  <metadata id="CorelCorpID_0Corel-Layer"/>
  <path class="fil0" d="M26.3 139.25c-10.83,29.3 2.91,52.79 -21.64,75.49 -3.75,3.46 -3.63,5.81 -3.6,12.44 0.05,13.11 -3.81,34.21 2.91,43.97 3.9,5.67 24.13,2.55 27,0.93 0.16,-6.07 -4.02,-7.57 -7.48,-10.39 -4.95,-4.04 -8.21,-0.46 -7.9,-10.38 0.31,-9.78 4.97,-20.79 10.59,-25.78 3.11,-2.76 6.94,-4.83 10.74,-7.36 9.97,-6.64 17.45,-22.44 25.77,-27.77 -1.61,20.8 -17.66,23.8 -18.86,31.52 -0.48,3.06 1.57,10.21 1.62,14.61 0.2,17.58 -3.28,15.2 4.24,28.42 2.87,5.05 4.21,5.52 10.96,5.73 3.88,0.12 14.82,1.39 15.15,-3.29 0.34,-4.87 -3.16,-7.4 -7.32,-9.21 -10.87,-4.73 -7.55,-18.32 -2.22,-26.75 4.98,-7.9 13.91,-11.88 21.22,-16.98 11.05,-7.71 21.04,-19.05 23.12,-33.82 4.25,0.63 24.48,9.66 29.7,11.81 5.27,2.17 9.92,4.08 15.16,6.31 6.73,2.87 15.07,3.15 16.27,4.55 1.81,2.36 1.95,19.75 2.48,24.3 0.48,4.1 1.41,7.64 1.58,11.64 0.22,5.05 -1.61,6.77 -1.08,11.35 2.87,2.21 3.12,0.1 4.16,3.78 0.67,2.39 0.42,4.69 0.85,7.04 0.68,3.78 1.95,3.07 2.23,6.02 0.28,3.07 -1.05,3.97 -0.22,6.92 3.06,4.18 30.67,3.1 35.58,0.97 1.84,-12.31 -6.96,-12.04 -11,-13.4 -5.56,-1.86 -7.03,-10.9 -5.98,-18.54 2.21,-16.12 -0.81,-26.68 6.03,-43.25l13.82 -2.08c2.05,4.33 2.38,18.44 3.09,24.52 0.49,4.22 1.22,7.75 1.67,11.95 0.38,3.56 -1.19,9.68 -0.01,11.87 2.45,3.59 3.22,-0.48 6.05,5.54 1.85,3.92 0.92,5.76 1.75,9.74 4.46,2.46 3.84,1.98 5.87,6.7 2.32,5.37 12.18,3.44 17.78,3.57 5.23,0.12 9.63,-0.68 14.45,-2.8 -0.05,-3.81 -4.05,-8.88 -7.04,-10.47 -7.23,-3.85 -17.45,0.06 -16.58,-18.76 0.96,-20.71 6.23,-32.28 7.23,-45.58 1.51,-20.2 1.91,-11.12 9.42,-26.01 7.6,-15.07 8.5,-43.28 8.8,-62.44 0.2,-12.79 -2.5,-22.84 6.44,-28.92 2.42,-1.64 3.96,-2.04 5.74,-3.62 6.45,-5.71 10.84,-4.85 14.4,-11.73 5.52,-10.69 -1.95,-14.67 -3.97,-20.07 -0.76,-2.04 -2.84,-5.19 -2.99,-5.72 -0.67,-2.35 1.55,-3.83 0.21,-8.14 -1.65,-5.31 -9.72,-18.62 -14.03,-21.6 -1.77,-1.23 -3.61,-1.59 -5.62,-3.14 -2.67,-2.05 -1.99,-2.65 -6.36,-2.47 -4.66,0.19 -3.94,0.21 -8.24,-0.36 -2.85,-0.38 -5.42,0.43 -8.28,0.84 -5.88,0.86 -6.31,-2.96 -22.6,0.83 -7.71,1.79 -9.02,1.33 -15.83,2.24 -3.46,0.47 -10.41,3.83 -11.22,6.33 -0.96,2.98 1.1,4.1 2.38,6.49 7.52,14.13 0.05,14.65 -6.75,30.61 -6.19,14.54 -9.66,8.73 -15.44,20.11 -1.91,3.76 -5.74,5.05 -8.45,8.82 -4.41,-0.22 -8.58,-1.31 -12.1,1.41 -3.02,2.33 -0.6,1.83 -5.41,2.06 -3,0.14 -3.4,0.22 -5.71,1.53 -5.47,3.08 -5.76,1.53 -12.39,1.13 -4.86,-0.29 -9.67,-0.55 -14.54,-0.41 -0.71,-5.7 5.25,-12.51 -1.53,-20.5 -1.56,-1.84 -3.55,-2.35 -4.51,-3.62 2.8,0.31 5.05,2.64 7.18,3.81 -1.41,-4.09 -4.35,-5.77 -9.16,-6.69l2.4 -1.04c1.09,-0.43 0.39,1.33 1.2,-0.44 0.12,-0.25 0.41,-0.11 0.56,-0.09l-3.72 -1.47 2.68 -1.14c-4.11,-1.26 -6.03,-1.12 -10.92,-1.26 1.88,-2.87 -0.5,0.52 1.64,-1.28 1.9,-1.6 0.24,1.07 1.72,-1.71l-6.92 -0.12c1.27,-2.15 1.27,0.25 3.43,-2.76 -11.43,0.14 -10.1,0.83 -10.45,-1l-4.78 0.62c0.49,-2.28 0.44,-1.25 1.66,-3.43 -2.49,0.51 -4.72,2.21 -6.44,2.17l-0.95 -0.11c-1.45,0.13 -5.17,1.61 -7.55,2.77l0 -1.99 -11.79 7.76c-0.83,-0.22 -0.71,-0.87 -1.81,-0.41 -2.12,0.88 -4.02,4.63 -5.12,6.2 -1.24,0.17 -0.18,-0.94 -1.4,-0.78l-1.75 4.92c-1.74,-0.56 -0.27,-5.1 -2.16,-0.38l-5.88 17.96c-0.82,6.25 -0.13,6 -0.41,10.69 -0.3,4.96 -2.39,0.51 0.19,6.36l-0.74 0.21c-0.06,0.03 -0.26,0.1 -0.32,0.13 -1.09,0.58 -0.43,-0.48 -0.83,0.84 1.41,0.78 3.83,1.37 5.33,1.96 -0.46,3.97 -4.91,7.72 -6.95,10.12 -7.84,9.27 -13.04,18.84 -17.47,30.84z"/>
 </g>
</svg>
